STARTFONT 2.1
COMMENT Recovered from s35ger.qfasl (MIT CADR System 46 serialized QFASL FONT object)
FONT MIT-CADR-QFASL-S35GER
SIZE 35 72 72
FONTBOUNDINGBOX 29 35 0 -5
STARTPROPERTIES 2
FONT_ASCENT 30
FONT_DESCENT 5
ENDPROPERTIES
CHARS 128
STARTCHAR C0000
ENCODING -1 0
SWIDTH 0 0
DWIDTH 0 0
BBX 29 35 0 -5
BITMAP
00000000
00000000
00000000
00000000
00000000
00000000
00000000
00000000
00000000
00000000
00000000
00000000
00000000
00000000
00000000
00000000
00000000
00000000
00000000
00000000
00000000
00000000
00000000
00000000
00000000
00000000
00000000
00000000
00000000
00000000
00000000
00000000
00000000
00000000
00000000
ENDCHAR
STARTCHAR C0001
ENCODING -1 1
SWIDTH 0 0
DWIDTH 0 0
BBX 29 35 0 -5
BITMAP
00000000
00000000
00000000
00000000
00000000
00000000
00000000
00000000
00000000
00000000
00000000
00000000
00000000
00000000
00000000
00000000
00000000
00000000
00000000
00000000
00000000
00000000
00000000
00000000
00000000
00000000
00000000
00000000
00000000
00000000
00000000
00000000
00000000
00000000
00000000
ENDCHAR
STARTCHAR C0002
ENCODING -1 2
SWIDTH 0 0
DWIDTH 0 0
BBX 29 35 0 -5
BITMAP
00000000
00000000
00000000
00000000
00000000
00000000
00000000
00000000
00000000
00000000
00000000
00000000
00000000
00000000
00000000
00000000
00000000
00000000
00000000
00000000
00000000
00000000
00000000
00000000
00000000
00000000
00000000
00000000
00000000
00000000
00000000
00000000
00000000
00000000
00000000
ENDCHAR
STARTCHAR C0003
ENCODING -1 3
SWIDTH 0 0
DWIDTH 0 0
BBX 29 35 0 -5
BITMAP
00000000
00000000
00000000
00000000
00000000
00000000
00000000
00000000
00000000
00000000
00000000
00000000
00000000
00000000
00000000
00000000
00000000
00000000
00000000
00000000
00000000
00000000
00000000
00000000
00000000
00000000
00000000
00000000
00000000
00000000
00000000
00000000
00000000
00000000
00000000
ENDCHAR
STARTCHAR C0004
ENCODING -1 4
SWIDTH 0 0
DWIDTH 0 0
BBX 29 35 0 -5
BITMAP
00000000
00000000
00000000
00000000
00000000
00000000
00000000
00000000
00000000
00000000
00000000
00000000
00000000
00000000
00000000
00000000
00000000
00000000
00000000
00000000
00000000
00000000
00000000
00000000
00000000
00000000
00000000
00000000
00000000
00000000
00000000
00000000
00000000
00000000
00000000
ENDCHAR
STARTCHAR C0005
ENCODING -1 5
SWIDTH 0 0
DWIDTH 0 0
BBX 29 35 0 -5
BITMAP
00000000
00000000
00000000
00000000
00000000
00000000
00000000
00000000
00000000
00000000
00000000
00000000
00000000
00000000
00000000
00000000
00000000
00000000
00000000
00000000
00000000
00000000
00000000
00000000
00000000
00000000
00000000
00000000
00000000
00000000
00000000
00000000
00000000
00000000
00000000
ENDCHAR
STARTCHAR C0006
ENCODING -1 6
SWIDTH 0 0
DWIDTH 0 0
BBX 29 35 0 -5
BITMAP
00000000
00000000
00000000
00000000
00000000
00000000
00000000
00000000
00000000
00000000
00000000
00000000
00000000
00000000
00000000
00000000
00000000
00000000
00000000
00000000
00000000
00000000
00000000
00000000
00000000
00000000
00000000
00000000
00000000
00000000
00000000
00000000
00000000
00000000
00000000
ENDCHAR
STARTCHAR C0007
ENCODING -1 7
SWIDTH 0 0
DWIDTH 0 0
BBX 29 35 0 -5
BITMAP
00000000
00000000
00000000
00000000
00000000
00000000
00000000
00000000
00000000
00000000
00000000
00000000
00000000
00000000
00000000
00000000
00000000
00000000
00000000
00000000
00000000
00000000
00000000
00000000
00000000
00000000
00000000
00000000
00000000
00000000
00000000
00000000
00000000
00000000
00000000
ENDCHAR
STARTCHAR C0008
ENCODING -1 8
SWIDTH 0 0
DWIDTH 0 0
BBX 29 35 0 -5
BITMAP
00000000
00000000
00000000
00000000
00000000
00000000
00000000
00000000
00000000
00000000
00000000
00000000
00000000
00000000
00000000
00000000
00000000
00000000
00000000
00000000
00000000
00000000
00000000
00000000
00000000
00000000
00000000
00000000
00000000
00000000
00000000
00000000
00000000
00000000
00000000
ENDCHAR
STARTCHAR C0009
ENCODING -1 9
SWIDTH 0 0
DWIDTH 0 0
BBX 29 35 0 -5
BITMAP
00000000
00000000
00000000
00000000
00000000
00000000
00000000
00000000
00000000
00000000
00000000
00000000
00000000
00000000
00000000
00000000
00000000
00000000
00000000
00000000
00000000
00000000
00000000
00000000
00000000
00000000
00000000
00000000
00000000
00000000
00000000
00000000
00000000
00000000
00000000
ENDCHAR
STARTCHAR C000A
ENCODING -1 10
SWIDTH 0 0
DWIDTH 0 0
BBX 29 35 0 -5
BITMAP
00000000
00000000
00000000
00000000
00000000
00000000
00000000
00000000
00000000
00000000
00000000
00000000
00000000
00000000
00000000
00000000
00000000
00000000
00000000
00000000
00000000
00000000
00000000
00000000
00000000
00000000
00000000
00000000
00000000
00000000
00000000
00000000
00000000
00000000
00000000
ENDCHAR
STARTCHAR C000B
ENCODING -1 11
SWIDTH 0 0
DWIDTH 0 0
BBX 29 35 0 -5
BITMAP
00000000
00000000
00000000
00000000
00000000
00000000
00000000
00000000
00000000
00000000
00000000
00000000
00000000
00000000
00000000
00000000
00000000
00000000
00000000
00000000
00000000
00000000
00000000
00000000
00000000
00000000
00000000
00000000
00000000
00000000
00000000
00000000
00000000
00000000
00000000
ENDCHAR
STARTCHAR C000C
ENCODING -1 12
SWIDTH 0 0
DWIDTH 0 0
BBX 29 35 0 -5
BITMAP
00000000
00000000
00000000
00000000
00000000
00000000
00000000
00000000
00000000
00000000
00000000
00000000
00000000
00000000
00000000
00000000
00000000
00000000
00000000
00000000
00000000
00000000
00000000
00000000
00000000
00000000
00000000
00000000
00000000
00000000
00000000
00000000
00000000
00000000
00000000
ENDCHAR
STARTCHAR C000D
ENCODING -1 13
SWIDTH 0 0
DWIDTH 0 0
BBX 29 35 0 -5
BITMAP
00000000
00000000
00000000
00000000
00000000
00000000
00000000
00000000
00000000
00000000
00000000
00000000
00000000
00000000
00000000
00000000
00000000
00000000
00000000
00000000
00000000
00000000
00000000
00000000
00000000
00000000
00000000
00000000
00000000
00000000
00000000
00000000
00000000
00000000
00000000
ENDCHAR
STARTCHAR C000E
ENCODING -1 14
SWIDTH 0 0
DWIDTH 0 0
BBX 29 35 0 -5
BITMAP
00000000
00000000
00000000
00000000
00000000
00000000
00000000
00000000
00000000
00000000
00000000
00000000
00000000
00000000
00000000
00000000
00000000
00000000
00000000
00000000
00000000
00000000
00000000
00000000
00000000
00000000
00000000
00000000
00000000
00000000
00000000
00000000
00000000
00000000
00000000
ENDCHAR
STARTCHAR C000F
ENCODING -1 15
SWIDTH 0 0
DWIDTH 0 0
BBX 29 35 0 -5
BITMAP
00000000
00000000
00000000
00000000
00000000
00000000
00000000
00000000
00000000
00000000
00000000
00000000
00000000
00000000
00000000
00000000
00000000
00000000
00000000
00000000
00000000
00000000
00000000
00000000
00000000
00000000
00000000
00000000
00000000
00000000
00000000
00000000
00000000
00000000
00000000
ENDCHAR
STARTCHAR C0010
ENCODING -1 16
SWIDTH 0 0
DWIDTH 0 0
BBX 29 35 0 -5
BITMAP
00000000
00000000
00000000
00000000
00000000
00000000
00000000
00000000
00000000
00000000
00000000
00000000
00000000
00000000
00000000
00000000
00000000
00000000
00000000
00000000
00000000
00000000
00000000
00000000
00000000
00000000
00000000
00000000
00000000
00000000
00000000
00000000
00000000
00000000
00000000
ENDCHAR
STARTCHAR C0011
ENCODING -1 17
SWIDTH 0 0
DWIDTH 0 0
BBX 29 35 0 -5
BITMAP
00000000
00000000
00000000
00000000
00000000
00000000
00000000
00000000
00000000
00000000
00000000
00000000
00000000
00000000
00000000
00000000
00000000
00000000
00000000
00000000
00000000
00000000
00000000
00000000
00000000
00000000
00000000
00000000
00000000
00000000
00000000
00000000
00000000
00000000
00000000
ENDCHAR
STARTCHAR C0012
ENCODING -1 18
SWIDTH 0 0
DWIDTH 0 0
BBX 29 35 0 -5
BITMAP
00000000
00000000
00000000
00000000
00000000
00000000
00000000
00000000
00000000
00000000
00000000
00000000
00000000
00000000
00000000
00000000
00000000
00000000
00000000
00000000
00000000
00000000
00000000
00000000
00000000
00000000
00000000
00000000
00000000
00000000
00000000
00000000
00000000
00000000
00000000
ENDCHAR
STARTCHAR C0013
ENCODING -1 19
SWIDTH 0 0
DWIDTH 0 0
BBX 29 35 0 -5
BITMAP
00000000
00000000
00000000
00000000
00000000
00000000
00000000
00000000
00000000
00000000
00000000
00000000
00000000
00000000
00000000
00000000
00000000
00000000
00000000
00000000
00000000
00000000
00000000
00000000
00000000
00000000
00000000
00000000
00000000
00000000
00000000
00000000
00000000
00000000
00000000
ENDCHAR
STARTCHAR C0014
ENCODING -1 20
SWIDTH 0 0
DWIDTH 0 0
BBX 29 35 0 -5
BITMAP
00000000
00000000
00000000
00000000
00000000
00000000
00000000
00000000
00000000
00000000
00000000
00000000
00000000
00000000
00000000
00000000
00000000
00000000
00000000
00000000
00000000
00000000
00000000
00000000
00000000
00000000
00000000
00000000
00000000
00000000
00000000
00000000
00000000
00000000
00000000
ENDCHAR
STARTCHAR C0015
ENCODING -1 21
SWIDTH 0 0
DWIDTH 0 0
BBX 29 35 0 -5
BITMAP
00000000
00000000
00000000
00000000
00000000
00000000
00000000
00000000
00000000
00000000
00000000
00000000
00000000
00000000
00000000
00000000
00000000
00000000
00000000
00000000
00000000
00000000
00000000
00000000
00000000
00000000
00000000
00000000
00000000
00000000
00000000
00000000
00000000
00000000
00000000
ENDCHAR
STARTCHAR C0016
ENCODING -1 22
SWIDTH 0 0
DWIDTH 0 0
BBX 29 35 0 -5
BITMAP
00000000
00000000
00000000
00000000
00000000
00000000
00000000
00000000
00000000
00000000
00000000
00000000
00000000
00000000
00000000
00000000
00000000
00000000
00000000
00000000
00000000
00000000
00000000
00000000
00000000
00000000
00000000
00000000
00000000
00000000
00000000
00000000
00000000
00000000
00000000
ENDCHAR
STARTCHAR C0017
ENCODING -1 23
SWIDTH 0 0
DWIDTH 0 0
BBX 29 35 0 -5
BITMAP
00000000
00000000
00000000
00000000
00000000
00000000
00000000
00000000
00000000
00000000
00000000
00000000
00000000
00000000
00000000
00000000
00000000
00000000
00000000
00000000
00000000
00000000
00000000
00000000
00000000
00000000
00000000
00000000
00000000
00000000
00000000
00000000
00000000
00000000
00000000
ENDCHAR
STARTCHAR C0018
ENCODING -1 24
SWIDTH 0 0
DWIDTH 0 0
BBX 29 35 0 -5
BITMAP
00000000
00000000
00000000
00000000
00000000
00000000
00000000
00000000
00000000
00000000
00000000
00000000
00000000
00000000
00000000
00000000
00000000
00000000
00000000
00000000
00000000
00000000
00000000
00000000
00000000
00000000
00000000
00000000
00000000
00000000
00000000
00000000
00000000
00000000
00000000
ENDCHAR
STARTCHAR C0019
ENCODING -1 25
SWIDTH 0 0
DWIDTH 0 0
BBX 29 35 0 -5
BITMAP
00000000
00000000
00000000
00000000
00000000
00000000
00000000
00000000
00000000
00000000
00000000
00000000
00000000
00000000
00000000
00000000
00000000
00000000
00000000
00000000
00000000
00000000
00000000
00000000
00000000
00000000
00000000
00000000
00000000
00000000
00000000
00000000
00000000
00000000
00000000
ENDCHAR
STARTCHAR C001A
ENCODING -1 26
SWIDTH 0 0
DWIDTH 0 0
BBX 29 35 0 -5
BITMAP
00000000
00000000
00000000
00000000
00000000
00000000
00000000
00000000
00000000
00000000
00000000
00000000
00000000
00000000
00000000
00000000
00000000
00000000
00000000
00000000
00000000
00000000
00000000
00000000
00000000
00000000
00000000
00000000
00000000
00000000
00000000
00000000
00000000
00000000
00000000
ENDCHAR
STARTCHAR C001B
ENCODING -1 27
SWIDTH 0 0
DWIDTH 0 0
BBX 29 35 0 -5
BITMAP
00000000
00000000
00000000
00000000
00000000
00000000
00000000
00000000
00000000
00000000
00000000
00000000
00000000
00000000
00000000
00000000
00000000
00000000
00000000
00000000
00000000
00000000
00000000
00000000
00000000
00000000
00000000
00000000
00000000
00000000
00000000
00000000
00000000
00000000
00000000
ENDCHAR
STARTCHAR C001C
ENCODING -1 28
SWIDTH 0 0
DWIDTH 0 0
BBX 29 35 0 -5
BITMAP
00000000
00000000
00000000
00000000
00000000
00000000
00000000
00000000
00000000
00000000
00000000
00000000
00000000
00000000
00000000
00000000
00000000
00000000
00000000
00000000
00000000
00000000
00000000
00000000
00000000
00000000
00000000
00000000
00000000
00000000
00000000
00000000
00000000
00000000
00000000
ENDCHAR
STARTCHAR C001D
ENCODING -1 29
SWIDTH 0 0
DWIDTH 0 0
BBX 29 35 0 -5
BITMAP
00000000
00000000
00000000
00000000
00000000
00000000
00000000
00000000
00000000
00000000
00000000
00000000
00000000
00000000
00000000
00000000
00000000
00000000
00000000
00000000
00000000
00000000
00000000
00000000
00000000
00000000
00000000
00000000
00000000
00000000
00000000
00000000
00000000
00000000
00000000
ENDCHAR
STARTCHAR C001E
ENCODING -1 30
SWIDTH 0 0
DWIDTH 0 0
BBX 29 35 0 -5
BITMAP
00000000
00000000
00000000
00000000
00000000
00000000
00000000
00000000
00000000
00000000
00000000
00000000
00000000
00000000
00000000
00000000
00000000
00000000
00000000
00000000
00000000
00000000
00000000
00000000
00000000
00000000
00000000
00000000
00000000
00000000
00000000
00000000
00000000
00000000
00000000
ENDCHAR
STARTCHAR C001F
ENCODING -1 31
SWIDTH 0 0
DWIDTH 0 0
BBX 29 35 0 -5
BITMAP
00000000
00000000
00000000
00000000
00000000
00000000
00000000
00000000
00000000
00000000
00000000
00000000
00000000
00000000
00000000
00000000
00000000
00000000
00000000
00000000
00000000
00000000
00000000
00000000
00000000
00000000
00000000
00000000
00000000
00000000
00000000
00000000
00000000
00000000
00000000
ENDCHAR
STARTCHAR C0020
ENCODING -1 32
SWIDTH 286 0
DWIDTH 10 0
BBX 29 35 0 -5
BITMAP
00000000
00000000
00000000
00000000
00000000
00000000
00000000
00000000
00000000
00000000
00000000
00000000
00000000
00000000
00000000
00000000
00000000
00000000
00000000
00000000
00000000
00000000
00000000
00000000
00000000
00000000
00000000
00000000
00000000
00000000
00000000
00000000
00000000
00000000
00000000
ENDCHAR
STARTCHAR C0021
ENCODING -1 33
SWIDTH 0 0
DWIDTH 0 0
BBX 29 35 0 -5
BITMAP
00000000
00000000
00000000
00000000
00000000
00000000
00000000
00000000
00000000
00000000
00000000
00000000
00000000
00000000
00000000
00000000
00000000
00000000
00000000
00000000
00000000
00000000
00000000
00000000
00000000
00000000
00000000
00000000
00000000
00000000
00000000
00000000
00000000
00000000
00000000
ENDCHAR
STARTCHAR C0022
ENCODING -1 34
SWIDTH 0 0
DWIDTH 0 0
BBX 29 35 0 -5
BITMAP
00000000
00000000
00000000
00000000
00000000
00000000
00000000
00000000
00000000
00000000
00000000
00000000
00000000
00000000
00000000
00000000
00000000
00000000
00000000
00000000
00000000
00000000
00000000
00000000
00000000
00000000
00000000
00000000
00000000
00000000
00000000
00000000
00000000
00000000
00000000
ENDCHAR
STARTCHAR C0023
ENCODING -1 35
SWIDTH 0 0
DWIDTH 0 0
BBX 29 35 0 -5
BITMAP
00000000
00000000
00000000
00000000
00000000
00000000
00000000
00000000
00000000
00000000
00000000
00000000
00000000
00000000
00000000
00000000
00000000
00000000
00000000
00000000
00000000
00000000
00000000
00000000
00000000
00000000
00000000
00000000
00000000
00000000
00000000
00000000
00000000
00000000
00000000
ENDCHAR
STARTCHAR C0024
ENCODING -1 36
SWIDTH 0 0
DWIDTH 0 0
BBX 29 35 0 -5
BITMAP
00000000
00000000
00000000
00000000
00000000
00000000
00000000
00000000
00000000
00000000
00000000
00000000
00000000
00000000
00000000
00000000
00000000
00000000
00000000
00000000
00000000
00000000
00000000
00000000
00000000
00000000
00000000
00000000
00000000
00000000
00000000
00000000
00000000
00000000
00000000
ENDCHAR
STARTCHAR C0025
ENCODING -1 37
SWIDTH 0 0
DWIDTH 0 0
BBX 29 35 0 -5
BITMAP
00000000
00000000
00000000
00000000
00000000
00000000
00000000
00000000
00000000
00000000
00000000
00000000
00000000
00000000
00000000
00000000
00000000
00000000
00000000
00000000
00000000
00000000
00000000
00000000
00000000
00000000
00000000
00000000
00000000
00000000
00000000
00000000
00000000
00000000
00000000
ENDCHAR
STARTCHAR C0026
ENCODING -1 38
SWIDTH 0 0
DWIDTH 0 0
BBX 29 35 0 -5
BITMAP
00000000
00000000
00000000
00000000
00000000
00000000
00000000
00000000
00000000
00000000
00000000
00000000
00000000
00000000
00000000
00000000
00000000
00000000
00000000
00000000
00000000
00000000
00000000
00000000
00000000
00000000
00000000
00000000
00000000
00000000
00000000
00000000
00000000
00000000
00000000
ENDCHAR
STARTCHAR C0027
ENCODING -1 39
SWIDTH 0 0
DWIDTH 0 0
BBX 29 35 0 -5
BITMAP
00000000
00000000
00000000
00000000
00000000
00000000
00000000
00000000
00000000
00000000
00000000
00000000
00000000
00000000
00000000
00000000
00000000
00000000
00000000
00000000
00000000
00000000
00000000
00000000
00000000
00000000
00000000
00000000
00000000
00000000
00000000
00000000
00000000
00000000
00000000
ENDCHAR
STARTCHAR C0028
ENCODING -1 40
SWIDTH 0 0
DWIDTH 0 0
BBX 29 35 0 -5
BITMAP
00000000
00000000
00000000
00000000
00000000
00000000
00000000
00000000
00000000
00000000
00000000
00000000
00000000
00000000
00000000
00000000
00000000
00000000
00000000
00000000
00000000
00000000
00000000
00000000
00000000
00000000
00000000
00000000
00000000
00000000
00000000
00000000
00000000
00000000
00000000
ENDCHAR
STARTCHAR C0029
ENCODING -1 41
SWIDTH 0 0
DWIDTH 0 0
BBX 29 35 0 -5
BITMAP
00000000
00000000
00000000
00000000
00000000
00000000
00000000
00000000
00000000
00000000
00000000
00000000
00000000
00000000
00000000
00000000
00000000
00000000
00000000
00000000
00000000
00000000
00000000
00000000
00000000
00000000
00000000
00000000
00000000
00000000
00000000
00000000
00000000
00000000
00000000
ENDCHAR
STARTCHAR C002A
ENCODING -1 42
SWIDTH 0 0
DWIDTH 0 0
BBX 29 35 0 -5
BITMAP
00000000
00000000
00000000
00000000
00000000
00000000
00000000
00000000
00000000
00000000
00000000
00000000
00000000
00000000
00000000
00000000
00000000
00000000
00000000
00000000
00000000
00000000
00000000
00000000
00000000
00000000
00000000
00000000
00000000
00000000
00000000
00000000
00000000
00000000
00000000
ENDCHAR
STARTCHAR C002B
ENCODING -1 43
SWIDTH 0 0
DWIDTH 0 0
BBX 29 35 0 -5
BITMAP
00000000
00000000
00000000
00000000
00000000
00000000
00000000
00000000
00000000
00000000
00000000
00000000
00000000
00000000
00000000
00000000
00000000
00000000
00000000
00000000
00000000
00000000
00000000
00000000
00000000
00000000
00000000
00000000
00000000
00000000
00000000
00000000
00000000
00000000
00000000
ENDCHAR
STARTCHAR C002C
ENCODING -1 44
SWIDTH 0 0
DWIDTH 0 0
BBX 29 35 0 -5
BITMAP
00000000
00000000
00000000
00000000
00000000
00000000
00000000
00000000
00000000
00000000
00000000
00000000
00000000
00000000
00000000
00000000
00000000
00000000
00000000
00000000
00000000
00000000
00000000
00000000
00000000
00000000
00000000
00000000
00000000
00000000
00000000
00000000
00000000
00000000
00000000
ENDCHAR
STARTCHAR C002D
ENCODING -1 45
SWIDTH 0 0
DWIDTH 0 0
BBX 29 35 0 -5
BITMAP
00000000
00000000
00000000
00000000
00000000
00000000
00000000
00000000
00000000
00000000
00000000
00000000
00000000
00000000
00000000
00000000
00000000
00000000
00000000
00000000
00000000
00000000
00000000
00000000
00000000
00000000
00000000
00000000
00000000
00000000
00000000
00000000
00000000
00000000
00000000
ENDCHAR
STARTCHAR C002E
ENCODING -1 46
SWIDTH 0 0
DWIDTH 0 0
BBX 29 35 0 -5
BITMAP
00000000
00000000
00000000
00000000
00000000
00000000
00000000
00000000
00000000
00000000
00000000
00000000
00000000
00000000
00000000
00000000
00000000
00000000
00000000
00000000
00000000
00000000
00000000
00000000
00000000
00000000
00000000
00000000
00000000
00000000
00000000
00000000
00000000
00000000
00000000
ENDCHAR
STARTCHAR C002F
ENCODING -1 47
SWIDTH 0 0
DWIDTH 0 0
BBX 29 35 0 -5
BITMAP
00000000
00000000
00000000
00000000
00000000
00000000
00000000
00000000
00000000
00000000
00000000
00000000
00000000
00000000
00000000
00000000
00000000
00000000
00000000
00000000
00000000
00000000
00000000
00000000
00000000
00000000
00000000
00000000
00000000
00000000
00000000
00000000
00000000
00000000
00000000
ENDCHAR
STARTCHAR C0030
ENCODING -1 48
SWIDTH 0 0
DWIDTH 0 0
BBX 29 35 0 -5
BITMAP
00000000
00000000
00000000
00000000
00000000
00000000
00000000
00000000
00000000
00000000
00000000
00000000
00000000
00000000
00000000
00000000
00000000
00000000
00000000
00000000
00000000
00000000
00000000
00000000
00000000
00000000
00000000
00000000
00000000
00000000
00000000
00000000
00000000
00000000
00000000
ENDCHAR
STARTCHAR C0031
ENCODING -1 49
SWIDTH 0 0
DWIDTH 0 0
BBX 29 35 0 -5
BITMAP
00000000
00000000
00000000
00000000
00000000
00000000
00000000
00000000
00000000
00000000
00000000
00000000
00000000
00000000
00000000
00000000
00000000
00000000
00000000
00000000
00000000
00000000
00000000
00000000
00000000
00000000
00000000
00000000
00000000
00000000
00000000
00000000
00000000
00000000
00000000
ENDCHAR
STARTCHAR C0032
ENCODING -1 50
SWIDTH 0 0
DWIDTH 0 0
BBX 29 35 0 -5
BITMAP
00000000
00000000
00000000
00000000
00000000
00000000
00000000
00000000
00000000
00000000
00000000
00000000
00000000
00000000
00000000
00000000
00000000
00000000
00000000
00000000
00000000
00000000
00000000
00000000
00000000
00000000
00000000
00000000
00000000
00000000
00000000
00000000
00000000
00000000
00000000
ENDCHAR
STARTCHAR C0033
ENCODING -1 51
SWIDTH 0 0
DWIDTH 0 0
BBX 29 35 0 -5
BITMAP
00000000
00000000
00000000
00000000
00000000
00000000
00000000
00000000
00000000
00000000
00000000
00000000
00000000
00000000
00000000
00000000
00000000
00000000
00000000
00000000
00000000
00000000
00000000
00000000
00000000
00000000
00000000
00000000
00000000
00000000
00000000
00000000
00000000
00000000
00000000
ENDCHAR
STARTCHAR C0034
ENCODING -1 52
SWIDTH 0 0
DWIDTH 0 0
BBX 29 35 0 -5
BITMAP
00000000
00000000
00000000
00000000
00000000
00000000
00000000
00000000
00000000
00000000
00000000
00000000
00000000
00000000
00000000
00000000
00000000
00000000
00000000
00000000
00000000
00000000
00000000
00000000
00000000
00000000
00000000
00000000
00000000
00000000
00000000
00000000
00000000
00000000
00000000
ENDCHAR
STARTCHAR C0035
ENCODING -1 53
SWIDTH 0 0
DWIDTH 0 0
BBX 29 35 0 -5
BITMAP
00000000
00000000
00000000
00000000
00000000
00000000
00000000
00000000
00000000
00000000
00000000
00000000
00000000
00000000
00000000
00000000
00000000
00000000
00000000
00000000
00000000
00000000
00000000
00000000
00000000
00000000
00000000
00000000
00000000
00000000
00000000
00000000
00000000
00000000
00000000
ENDCHAR
STARTCHAR C0036
ENCODING -1 54
SWIDTH 0 0
DWIDTH 0 0
BBX 29 35 0 -5
BITMAP
00000000
00000000
00000000
00000000
00000000
00000000
00000000
00000000
00000000
00000000
00000000
00000000
00000000
00000000
00000000
00000000
00000000
00000000
00000000
00000000
00000000
00000000
00000000
00000000
00000000
00000000
00000000
00000000
00000000
00000000
00000000
00000000
00000000
00000000
00000000
ENDCHAR
STARTCHAR C0037
ENCODING -1 55
SWIDTH 0 0
DWIDTH 0 0
BBX 29 35 0 -5
BITMAP
00000000
00000000
00000000
00000000
00000000
00000000
00000000
00000000
00000000
00000000
00000000
00000000
00000000
00000000
00000000
00000000
00000000
00000000
00000000
00000000
00000000
00000000
00000000
00000000
00000000
00000000
00000000
00000000
00000000
00000000
00000000
00000000
00000000
00000000
00000000
ENDCHAR
STARTCHAR C0038
ENCODING -1 56
SWIDTH 0 0
DWIDTH 0 0
BBX 29 35 0 -5
BITMAP
00000000
00000000
00000000
00000000
00000000
00000000
00000000
00000000
00000000
00000000
00000000
00000000
00000000
00000000
00000000
00000000
00000000
00000000
00000000
00000000
00000000
00000000
00000000
00000000
00000000
00000000
00000000
00000000
00000000
00000000
00000000
00000000
00000000
00000000
00000000
ENDCHAR
STARTCHAR C0039
ENCODING -1 57
SWIDTH 0 0
DWIDTH 0 0
BBX 29 35 0 -5
BITMAP
00000000
00000000
00000000
00000000
00000000
00000000
00000000
00000000
00000000
00000000
00000000
00000000
00000000
00000000
00000000
00000000
00000000
00000000
00000000
00000000
00000000
00000000
00000000
00000000
00000000
00000000
00000000
00000000
00000000
00000000
00000000
00000000
00000000
00000000
00000000
ENDCHAR
STARTCHAR C003A
ENCODING -1 58
SWIDTH 0 0
DWIDTH 0 0
BBX 29 35 0 -5
BITMAP
00000000
00000000
00000000
00000000
00000000
00000000
00000000
00000000
00000000
00000000
00000000
00000000
00000000
00000000
00000000
00000000
00000000
00000000
00000000
00000000
00000000
00000000
00000000
00000000
00000000
00000000
00000000
00000000
00000000
00000000
00000000
00000000
00000000
00000000
00000000
ENDCHAR
STARTCHAR C003B
ENCODING -1 59
SWIDTH 0 0
DWIDTH 0 0
BBX 29 35 0 -5
BITMAP
00000000
00000000
00000000
00000000
00000000
00000000
00000000
00000000
00000000
00000000
00000000
00000000
00000000
00000000
00000000
00000000
00000000
00000000
00000000
00000000
00000000
00000000
00000000
00000000
00000000
00000000
00000000
00000000
00000000
00000000
00000000
00000000
00000000
00000000
00000000
ENDCHAR
STARTCHAR C003C
ENCODING -1 60
SWIDTH 0 0
DWIDTH 0 0
BBX 29 35 0 -5
BITMAP
00000000
00000000
00000000
00000000
00000000
00000000
00000000
00000000
00000000
00000000
00000000
00000000
00000000
00000000
00000000
00000000
00000000
00000000
00000000
00000000
00000000
00000000
00000000
00000000
00000000
00000000
00000000
00000000
00000000
00000000
00000000
00000000
00000000
00000000
00000000
ENDCHAR
STARTCHAR C003D
ENCODING -1 61
SWIDTH 0 0
DWIDTH 0 0
BBX 29 35 0 -5
BITMAP
00000000
00000000
00000000
00000000
00000000
00000000
00000000
00000000
00000000
00000000
00000000
00000000
00000000
00000000
00000000
00000000
00000000
00000000
00000000
00000000
00000000
00000000
00000000
00000000
00000000
00000000
00000000
00000000
00000000
00000000
00000000
00000000
00000000
00000000
00000000
ENDCHAR
STARTCHAR C003E
ENCODING -1 62
SWIDTH 0 0
DWIDTH 0 0
BBX 29 35 0 -5
BITMAP
00000000
00000000
00000000
00000000
00000000
00000000
00000000
00000000
00000000
00000000
00000000
00000000
00000000
00000000
00000000
00000000
00000000
00000000
00000000
00000000
00000000
00000000
00000000
00000000
00000000
00000000
00000000
00000000
00000000
00000000
00000000
00000000
00000000
00000000
00000000
ENDCHAR
STARTCHAR C003F
ENCODING -1 63
SWIDTH 0 0
DWIDTH 0 0
BBX 29 35 0 -5
BITMAP
00000000
00000000
00000000
00000000
00000000
00000000
00000000
00000000
00000000
00000000
00000000
00000000
00000000
00000000
00000000
00000000
00000000
00000000
00000000
00000000
00000000
00000000
00000000
00000000
00000000
00000000
00000000
00000000
00000000
00000000
00000000
00000000
00000000
00000000
00000000
ENDCHAR
STARTCHAR C0040
ENCODING -1 64
SWIDTH 0 0
DWIDTH 0 0
BBX 29 35 0 -5
BITMAP
00000000
00000000
00000000
00000000
00000000
00000000
00000000
00000000
00000000
00000000
00000000
00000000
00000000
00000000
00000000
00000000
00000000
00000000
00000000
00000000
00000000
00000000
00000000
00000000
00000000
00000000
00000000
00000000
00000000
00000000
00000000
00000000
00000000
00000000
00000000
ENDCHAR
STARTCHAR C0041
ENCODING -1 65
SWIDTH 657 0
DWIDTH 23 0
BBX 29 35 0 -5
BITMAP
00000000
00000000
00000000
00000000
00000000
00000000
1F007000
3F81F000
63D9E000
E3EFC000
E1EF8000
E1EF8000
F1EF8000
F1F78000
F9F78000
79E78000
3DE78000
3DE78000
1DE78000
1DC78000
19C78000
33878000
03078000
0E0F8000
3E0F8000
7F1F8000
3FF7E000
0FC7C000
03838000
00010000
00000000
00000000
00000000
00000000
00000000
ENDCHAR
STARTCHAR C0042
ENCODING -1 66
SWIDTH 686 0
DWIDTH 24 0
BBX 29 35 0 -5
BITMAP
00000000
00000000
00000000
00000000
00000000
0F078000
3FCFC000
73FFE000
71F9F000
F1F1F000
F0F1F000
F8F1F000
F8F0F000
FCF87800
7CFBF800
3CFFE000
3CFFE000
1CF3F000
39F1F000
79E0F800
61C0F800
03807800
3F007800
3F003800
7F803000
7FC03000
CFE06000
03F8C000
01FF8000
003C0000
00000000
00000000
00000000
00000000
00000000
ENDCHAR
STARTCHAR C0043
ENCODING -1 67
SWIDTH 600 0
DWIDTH 21 0
BBX 29 35 0 -5
BITMAP
00000000
00000000
00000000
00000000
00000000
00000000
07884000
0FFEC000
1C7FC000
3C3F8000
787F0000
78600000
F8E00000
F0E00000
F0F00000
F0F80000
F0F80000
F07C0000
F07C0000
F03E0000
F01E0000
F01E0000
781E0000
781E0000
781C0000
3C786000
1C008000
0F010000
07FE0000
00780000
00000000
00000000
00000000
00000000
00000000
ENDCHAR
STARTCHAR C0044
ENCODING -1 68
SWIDTH 686 0
DWIDTH 24 0
BBX 29 35 0 -5
BITMAP
00000000
00000000
00000000
00000000
00000000
00000000
07F80000
1FFC0000
1FFF0000
3FFF8000
7FFFC000
607FC000
E067E000
C0C1F000
C1C07000
C1E03800
61F03800
31F01800
00F00800
00780800
00700800
00700800
00600800
0FC01800
1FC01000
3FE03000
23FEE000
61FFC000
007F8000
00180000
00000000
00000000
00000000
00000000
00000000
ENDCHAR
STARTCHAR C0045
ENCODING -1 69
SWIDTH 657 0
DWIDTH 23 0
BBX 29 35 0 -5
BITMAP
00000000
00000000
00000000
00000000
00000000
03C40000
07EE2000
1E1FE000
1C1FC000
3C3F8000
78330000
78600000
78700000
F8700000
F878E000
F879F000
F87FF000
F87E7000
F83E6000
F81E2000
F80E0000
780E0000
780E0000
380E0000
3C3C2000
1E306000
0E00C000
079F0000
01FC0000
00000000
00000000
00000000
00000000
00000000
00000000
ENDCHAR
STARTCHAR C0046
ENCODING -1 70
SWIDTH 629 0
DWIDTH 22 0
BBX 29 35 0 -5
BITMAP
00000000
00000000
00000000
1F000000
3FC00000
7FF0C000
FFF8C000
E7FFC000
C1FF8000
C07F0000
C03E0000
40300000
70300000
1C700000
0071C000
0073E000
387FE000
7C78E000
9C784000
1E7C0000
3C3E0000
3C3E0000
7C1F0000
781F0000
780F0000
700F0000
700F0000
380E0000
181C0000
0FF80000
01E00000
00000000
00000000
00000000
00000000
ENDCHAR
STARTCHAR C0047
ENCODING -1 71
SWIDTH 686 0
DWIDTH 24 0
BBX 29 35 0 -5
BITMAP
00000000
00000000
00000000
00000000
00000000
00000000
03F81800
0FF83800
1E3C7000
1C72F000
3C70F000
7870F800
78F0F000
F8F0F000
F8F8E000
F8F8E000
F07FF000
F07EF800
F03E7C00
F03E7C00
F01E7C00
F01E7C00
781E7C00
789C7800
38787800
1C007000
1C00E000
0601C000
03FF0000
00380000
00000000
00000000
00000000
00000000
00000000
ENDCHAR
STARTCHAR C0048
ENCODING -1 72
SWIDTH 686 0
DWIDTH 24 0
BBX 29 35 0 -5
BITMAP
00000000
00000000
00000000
00000000
00000000
00000000
00000000
00200000
00708000
00F98000
01FF8000
03FF0000
073E0000
07078000
0F0FE000
0F1FF000
0F3FF000
0FFFF800
0FC1F800
0FC07800
0FC07C00
07C03800
27C03800
F3E03800
F9E03800
F1C03000
F1C03000
71802000
3F3FC000
007F8000
007F0000
00620000
00400000
00630000
003F0000
ENDCHAR
STARTCHAR C0049
ENCODING -1 73
SWIDTH 600 0
DWIDTH 21 0
BBX 29 35 0 -5
BITMAP
00000000
00000000
00000000
00000000
0F800000
3FC18000
7FE18000
7FF08000
E3F88000
C1FF8000
C0FF8000
C07F0000
C01E0000
C00F0000
601F8000
7E3C4000
3E3C6000
003C2000
003E0000
003F0000
001F0000
001F8000
000F8000
3007C000
7C07C000
FC03C000
9E01C000
9F018000
8F018000
87830000
03FE0000
01F80000
00000000
00000000
00000000
ENDCHAR
STARTCHAR C004A
ENCODING -1 74
SWIDTH 629 0
DWIDTH 22 0
BBX 29 35 0 -5
BITMAP
00000000
00000000
00000000
00000000
0F800000
3FC18000
7FE08000
7FF0C000
E3F8C000
E1FFC000
C07F8000
C03F0000
C00E0000
C00F8000
601EC000
3E1C4000
1E1C2000
003E2000
003E0000
001F0000
001F8000
000FC000
0007C000
3807C000
7E03C000
FE01C000
CF01C000
CF01C000
C7818000
07C30000
03FE0000
00F80000
00000000
00000000
00000000
ENDCHAR
STARTCHAR C004B
ENCODING -1 75
SWIDTH 629 0
DWIDTH 22 0
BBX 29 35 0 -5
BITMAP
00000000
00000000
00000000
00000000
00000000
00F80000
07FE0000
0F030000
1C398000
3CFCC000
3D9E6000
7F1F6000
7F0F2000
7E0F2000
7E0F2000
7E07A000
7E07A000
3F7F0000
3FFE0000
1F3E0000
1F3E0000
0FBE0000
0F9E0000
E79E0000
F39E0000
E31E0000
E31F8000
660F0000
3C060000
00000000
00000000
00000000
00000000
00000000
00000000
ENDCHAR
STARTCHAR C004C
ENCODING -1 76
SWIDTH 514 0
DWIDTH 18 0
BBX 29 35 0 -5
BITMAP
00000000
00000000
00000000
00000000
00000000
0FC00000
1FF00000
38380000
703C0000
F03C0000
F03C0000
F03C0000
F87C0000
F87C0000
FC780000
7C780000
7E780000
3E780000
1E3C0000
0E0C0000
0E000000
0C000000
3C000000
7E020000
FF060000
FFFE0000
CFFC0000
87F80000
01E00000
00000000
00000000
00000000
00000000
00000000
00000000
ENDCHAR
STARTCHAR C004D
ENCODING -1 77
SWIDTH 886 0
DWIDTH 31 0
BBX 29 35 0 -5
BITMAP
00000000
00000000
00000000
00000000
00000000
0F070780
3FCF8FC0
73FBFBE0
61F1F1E0
E1F1F1E0
F1F1F1E0
F1F1F1E0
F9F1F1E0
FCF1F0E0
7CF1F070
7CF1F0F0
3EF1F1E0
1EF1F3C0
0EF1F3C0
0CF1E780
08E1E780
30E1E780
00E1C780
08C1C780
1FDD87C0
3FBF87F0
3F3F03F0
7F7E03C0
46440180
00000000
00000000
00000000
00000000
00000000
00000000
ENDCHAR
STARTCHAR C004E
ENCODING -1 78
SWIDTH 743 0
DWIDTH 26 0
BBX 29 35 0 -5
BITMAP
00000000
00000000
00000000
00000000
1F83E000
3FC7F000
71FC7800
70FC7800
F0FC7800
F0F87C00
F0F87C00
F8F87C00
FCF83C00
7CF81C00
7EF81E00
3EF83C00
1E78F000
0EF8F000
0CF9F000
0CF9E000
38F1E000
30F1E000
00E1E000
0CE1E000
1FE1F200
3FC1FE00
3F81FC00
6F00F800
43006000
00000000
00000000
00000000
00000000
00000000
00000000
ENDCHAR
STARTCHAR C004F
ENCODING -1 79
SWIDTH 714 0
DWIDTH 25 0
BBX 29 35 0 -5
BITMAP
00000000
00000000
00000000
00000000
047E0000
07FF8000
07FFC000
07FFE000
0FFFF000
1803F800
38003800
78001C00
7C000C00
7C000C00
7E000E00
3E000600
3F000600
9F000600
CF000600
C7000400
6F000400
3E000400
08000800
1F800800
3FF03000
7FFFE000
67FFC000
C1FF8000
407F0000
00000000
00000000
00000000
00000000
00000000
00000000
ENDCHAR
STARTCHAR C0050
ENCODING -1 80
SWIDTH 714 0
DWIDTH 25 0
BBX 29 35 0 -5
BITMAP
00000000
00000000
00000000
00000000
0F03C000
3F87E000
7FFFF000
71F8F000
F1F8F800
F0F8F800
F8F87800
F8F87800
FCF87E00
7CF9FC00
7CFBC000
3EFBE000
1EFBF000
1CFBF800
1CF9F800
38F8FC00
70F87C00
00F81C00
01F80C00
07F80C00
0FFC0C00
1FFFFC00
1FFFF800
38FFE000
30FFC000
00700000
00700000
00700000
00700000
00200000
00000000
ENDCHAR
STARTCHAR C0051
ENCODING -1 81
SWIDTH 857 0
DWIDTH 30 0
BBX 29 35 0 -5
BITMAP
00000000
00000000
00000000
00000000
087F0000
0FFF8000
0FFFE000
0FFFF000
1FFFF800
18FCFC00
38001C00
38000E00
7C000600
7C000700
7E000300
3E000300
1F000300
9F000300
87000300
87000300
46000200
3E000200
00000610
0F800630
3FE01FF0
7FFFFBE0
67FFF3E0
C0FFC3C0
403F0080
00000000
00000000
00000000
00000000
00000000
00000000
ENDCHAR
STARTCHAR C0052
ENCODING -1 82
SWIDTH 714 0
DWIDTH 25 0
BBX 29 35 0 -5
BITMAP
00000000
00000000
00000000
00000000
1F07C000
3FCFE000
61D8F000
E1F8F800
E1F87800
F1F07800
F0F07800
F8F07800
F8F03800
FCF03C00
7CF07E00
7CFFF800
3CFFE000
38F1E000
30F1E000
E1F1E000
01F1E000
01F1E000
21F1E000
71E1E000
F1E1E000
F1C1FC00
71C1F800
3F81F000
1E006000
00000000
00000000
00000000
00000000
00000000
00000000
ENDCHAR
STARTCHAR C0053
ENCODING -1 83
SWIDTH 714 0
DWIDTH 25 0
BBX 29 35 0 -5
BITMAP
00000000
00000000
00000000
00000000
00000000
01F80800
07FE0800
0FFF9800
1FFFF800
3FFFF800
301FF000
6007E000
60000000
C3C00000
C601C000
C407E000
CC3FF000
CFFFF800
C7FFFC00
C7FE0C00
C3F80400
E0400400
70000400
78000C00
3E007800
3FFFF800
1FFFF000
0FFFE000
03FF8000
007C0000
00000000
00000000
00000000
00000000
00000000
ENDCHAR
STARTCHAR C0054
ENCODING -1 84
SWIDTH 657 0
DWIDTH 23 0
BBX 29 35 0 -5
BITMAP
00000000
00000000
00000000
00000000
07C00000
1FF01000
3FFC1000
7FFE3000
7FFFF000
60FFE000
C07FE000
C07FC000
C0E38000
C1E00000
41E00000
61F00000
39F00000
01F80000
00F80000
00780000
00700000
0C600000
3FC00000
3FC03000
7FF06000
47FFC000
C3FF8000
C0FF0000
003C0000
00000000
00000000
00000000
00000000
00000000
00000000
ENDCHAR
STARTCHAR C0055
ENCODING -1 85
SWIDTH 629 0
DWIDTH 22 0
BBX 29 35 0 -5
BITMAP
00000000
00000000
00000000
00000000
18040000
3C0E0000
7C1F0000
FE3FC000
FE3F8000
3E1F0000
1E1F0000
3E1F0000
3E1F0000
3E1F0000
3E0F0000
3E0F0000
3E0F0000
3E0F0000
3E0F0000
3E0F0000
3E0F0000
3E0F0000
3E0F0000
3E1F0000
3E3F2000
7FCFE000
3F87C000
0F070000
06020000
00000000
00000000
00000000
00000000
00000000
00000000
ENDCHAR
STARTCHAR C0056
ENCODING -1 86
SWIDTH 714 0
DWIDTH 25 0
BBX 29 35 0 -5
BITMAP
00000000
00000000
00000000
00000000
0F07C000
3FCFE000
61F9F000
61F9F000
E1F0F000
F1F0F000
F0F0F000
F8F07000
F8F07C00
FCF0FC00
7CF1C000
3CF3C000
39F3C000
39E3E000
71E3F000
41C1F000
0300F800
3E00F800
7F007800
FF803800
FFC03000
CFE07000
87F06000
81FFC000
007F8000
00000000
00000000
00000000
00000000
00000000
00000000
ENDCHAR
STARTCHAR C0057
ENCODING -1 87
SWIDTH 914 0
DWIDTH 32 0
BBX 29 35 0 -5
BITMAP
00000000
00000000
00000000
00000000
00000000
1F0E0F80
7FDF3FC0
E3FFF3E0
E1F1E3E0
E1F183E0
E1F181E0
F1F181E0
F9F380E0
F9F380F8
F9F780F8
79F7C1C0
3DF3E3C0
39E3E3E0
19E1F3E0
71C0F1F0
4180E1F8
0100E0F8
3E004078
7E00C038
7F80E030
FFC1F030
8FFFFC20
87FFFFC0
01F87F80
00E03E00
00000000
00000000
00000000
00000000
00000000
ENDCHAR
STARTCHAR C0058
ENCODING -1 88
SWIDTH 543 0
DWIDTH 19 0
BBX 29 35 0 -5
BITMAP
00000000
00000000
00000000
00000000
1C040000
1E0F0000
3F9F8000
3FFF8000
7FF78000
7FF70000
C7E30000
03E00000
03E00000
03E00000
03E20000
0FE60000
3FFE0000
3FFE0000
7FF80000
73E00000
63C00000
03E00000
03E00000
03E10000
E3E30000
F7FF0000
FCFE0000
FCFC0000
787C0000
00100000
00000000
00000000
00000000
00000000
00000000
ENDCHAR
STARTCHAR C0059
ENCODING -1 89
SWIDTH 657 0
DWIDTH 23 0
BBX 29 35 0 -5
BITMAP
00000000
00000000
00000000
00000000
00000000
1F870000
3FCF8000
73FBC000
71F9C000
F1F9E000
F1F9E000
F0F9F000
F8F9F000
F8F9F000
7CF9F000
7EF1F000
3EF1F000
1EF1F000
1CF1F000
0CE1F000
19C1F000
2181F000
0301F000
0701E000
1F01E000
3F81E000
1FC1E000
03F1C000
19C38000
1C838000
3C070000
1C060000
0E180000
07F00000
00000000
ENDCHAR
STARTCHAR C005A
ENCODING -1 90
SWIDTH 629 0
DWIDTH 22 0
BBX 29 35 0 -5
BITMAP
01F80000
07FF0000
0C0F0000
30078000
2007C000
0007C000
0407C000
0E07C000
1E07C000
1E07C000
1E078000
0E0F0000
073E0000
07FC0000
07FE0000
0FFF8000
1FFFC000
180FC000
3003E000
0003E000
0001E000
F801E000
F801E000
7C01E000
3C01C000
3E03C000
1E038000
0F0E0000
03FC0000
00000000
00000000
00000000
00000000
00000000
00000000
ENDCHAR
STARTCHAR C005B
ENCODING -1 91
SWIDTH 0 0
DWIDTH 0 0
BBX 29 35 0 -5
BITMAP
00000000
00000000
00000000
00000000
00000000
00000000
00000000
00000000
00000000
00000000
00000000
00000000
00000000
00000000
00000000
00000000
00000000
00000000
00000000
00000000
00000000
00000000
00000000
00000000
00000000
00000000
00000000
00000000
00000000
00000000
00000000
00000000
00000000
00000000
00000000
ENDCHAR
STARTCHAR C005C
ENCODING -1 92
SWIDTH 0 0
DWIDTH 0 0
BBX 29 35 0 -5
BITMAP
00000000
00000000
00000000
00000000
00000000
00000000
00000000
00000000
00000000
00000000
00000000
00000000
00000000
00000000
00000000
00000000
00000000
00000000
00000000
00000000
00000000
00000000
00000000
00000000
00000000
00000000
00000000
00000000
00000000
00000000
00000000
00000000
00000000
00000000
00000000
ENDCHAR
STARTCHAR C005D
ENCODING -1 93
SWIDTH 0 0
DWIDTH 0 0
BBX 29 35 0 -5
BITMAP
00000000
00000000
00000000
00000000
00000000
00000000
00000000
00000000
00000000
00000000
00000000
00000000
00000000
00000000
00000000
00000000
00000000
00000000
00000000
00000000
00000000
00000000
00000000
00000000
00000000
00000000
00000000
00000000
00000000
00000000
00000000
00000000
00000000
00000000
00000000
ENDCHAR
STARTCHAR C005E
ENCODING -1 94
SWIDTH 0 0
DWIDTH 0 0
BBX 29 35 0 -5
BITMAP
00000000
00000000
00000000
00000000
00000000
00000000
00000000
00000000
00000000
00000000
00000000
00000000
00000000
00000000
00000000
00000000
00000000
00000000
00000000
00000000
00000000
00000000
00000000
00000000
00000000
00000000
00000000
00000000
00000000
00000000
00000000
00000000
00000000
00000000
00000000
ENDCHAR
STARTCHAR C005F
ENCODING -1 95
SWIDTH 0 0
DWIDTH 0 0
BBX 29 35 0 -5
BITMAP
00000000
00000000
00000000
00000000
00000000
00000000
00000000
00000000
00000000
00000000
00000000
00000000
00000000
00000000
00000000
00000000
00000000
00000000
00000000
00000000
00000000
00000000
00000000
00000000
00000000
00000000
00000000
00000000
00000000
00000000
00000000
00000000
00000000
00000000
00000000
ENDCHAR
STARTCHAR C0060
ENCODING -1 96
SWIDTH 0 0
DWIDTH 0 0
BBX 29 35 0 -5
BITMAP
00000000
00000000
00000000
00000000
00000000
00000000
00000000
00000000
00000000
00000000
00000000
00000000
00000000
00000000
00000000
00000000
00000000
00000000
00000000
00000000
00000000
00000000
00000000
00000000
00000000
00000000
00000000
00000000
00000000
00000000
00000000
00000000
00000000
00000000
00000000
ENDCHAR
STARTCHAR C0061
ENCODING -1 97
SWIDTH 400 0
DWIDTH 14 0
BBX 29 35 0 -5
BITMAP
00000000
00000000
00000000
00000000
00000000
00000000
00000000
00000000
00000000
00000000
00000000
00000000
00000000
06000000
0FC00000
1FF00000
3FF00000
71E00000
F1E00000
F1E00000
F1E00000
F1E00000
F1E00000
F1E00000
F1E00000
71E00000
7DF80000
78F00000
30600000
00000000
00000000
00000000
00000000
00000000
00000000
ENDCHAR
STARTCHAR C0062
ENCODING -1 98
SWIDTH 429 0
DWIDTH 15 0
BBX 29 35 0 -5
BITMAP
00000000
00000000
00000000
00000000
00000000
00000000
00000000
00000000
03800000
07000000
CC000000
FC000000
7C000000
7C000000
7C200000
7C700000
3DF00000
3FF00000
3CF80000
3CF80000
3C780000
3C780000
3C780000
3C780000
3C780000
3C780000
3C780000
7EF00000
7FE00000
3FC00000
07000000
00000000
00000000
00000000
00000000
ENDCHAR
STARTCHAR C0063
ENCODING -1 99
SWIDTH 314 0
DWIDTH 11 0
BBX 29 35 0 -5
BITMAP
00000000
00000000
00000000
00000000
00000000
00000000
00000000
00000000
00000000
00000000
00000000
00000000
00000000
07000000
1F000000
7F800000
7F800000
F3000000
F2000000
F0000000
F0000000
F0000000
F0000000
F0000000
F0000000
F8000000
7F800000
7F000000
3C000000
08000000
00000000
00000000
00000000
00000000
00000000
ENDCHAR
STARTCHAR C0064
ENCODING -1 100
SWIDTH 371 0
DWIDTH 13 0
BBX 29 35 0 -5
BITMAP
00000000
00000000
00000000
00000000
00000000
00000000
00000000
70000000
E0000000
C0000000
E0000000
F0000000
FC000000
FF000000
7F800000
1FC00000
0FE00000
39E00000
79F00000
78F00000
78F00000
78F00000
78F00000
78F00000
78F00000
78E00000
FFC00000
FF800000
3E000000
04000000
00000000
00000000
00000000
00000000
00000000
ENDCHAR
STARTCHAR C0065
ENCODING -1 101
SWIDTH 343 0
DWIDTH 12 0
BBX 29 35 0 -5
BITMAP
00000000
00000000
00000000
00000000
00000000
00000000
00000000
00000000
00000000
00000000
00000000
00000000
07000000
0F800000
3F800000
7F800000
F7C00000
F3E00000
F3800000
FF000000
FE000000
F8000000
F8000000
F8000000
F8400000
7FC00000
7F800000
1E000000
0E000000
00000000
00000000
00000000
00000000
00000000
00000000
ENDCHAR
STARTCHAR C0066
ENCODING -1 102
SWIDTH 286 0
DWIDTH 10 0
BBX 29 35 0 -5
BITMAP
00000000
00000000
00000000
00000000
00000000
1C000000
3F800000
3F800000
3F000000
7E000000
70000000
70000000
7E000000
FF800000
FF000000
FE000000
7C000000
3C000000
3C000000
3C000000
3C000000
3C000000
3C000000
3C000000
3C000000
3C000000
3C000000
38000000
18000000
18000000
18000000
18000000
00000000
00000000
00000000
ENDCHAR
STARTCHAR C0067
ENCODING -1 103
SWIDTH 400 0
DWIDTH 14 0
BBX 29 35 0 -5
BITMAP
00000000
00000000
00000000
00000000
00000000
00000000
00000000
00000000
00000000
00000000
00000000
00000000
00000000
07000000
0FC00000
1FF00000
3FF00000
7BF00000
F1E00000
F1E00000
F1E00000
F1E00000
F1E00000
F1E00000
F1E00000
F1E00000
79E00000
78E00000
30F00000
00F00000
70700000
70F00000
78E00000
3F800000
00000000
ENDCHAR
STARTCHAR C0068
ENCODING -1 104
SWIDTH 400 0
DWIDTH 14 0
BBX 29 35 0 -5
BITMAP
00000000
00000000
00000000
00000000
00000000
00000000
03000000
07000000
8E000000
DC000000
FC000000
78000000
78000000
78E00000
79E00000
7FF00000
7DF00000
78F00000
78F00000
78F00000
78F00000
78F00000
78F00000
78F00000
78F00000
78F00000
FEF00000
7CE00000
18E00000
00E00000
00C00000
01C00000
01800000
01000000
00000000
ENDCHAR
STARTCHAR C0069
ENCODING -1 105
SWIDTH 257 0
DWIDTH 9 0
BBX 29 35 0 -5
BITMAP
00000000
00000000
00000000
00000000
00000000
00000000
38000000
78000000
7C000000
78000000
38000000
30000000
00000000
30000000
78000000
FE000000
FE000000
FC000000
7C000000
7C000000
7C000000
7C000000
7C000000
7C000000
3C000000
3C000000
3F000000
3E000000
1C000000
08000000
00000000
00000000
00000000
00000000
00000000
ENDCHAR
STARTCHAR C006A
ENCODING -1 106
SWIDTH 286 0
DWIDTH 10 0
BBX 29 35 0 -5
BITMAP
00000000
00000000
00000000
38000000
3C000000
7C000000
3C000000
18000000
00000000
00000000
18000000
3C000000
7E000000
FE000000
3C000000
3C000000
3C000000
3C000000
3C000000
3C000000
3C000000
3C000000
3C000000
3C000000
3C000000
3C000000
3E000000
3E000000
3B000000
E0000000
80000000
00000000
00000000
00000000
00000000
ENDCHAR
STARTCHAR C006B
ENCODING -1 107
SWIDTH 314 0
DWIDTH 11 0
BBX 29 35 0 -5
BITMAP
00000000
00000000
00000000
00000000
00000000
00000000
03800000
07800000
CF800000
7FC00000
7FC00000
3FC00000
3E000000
3F000000
7F800000
FF800000
7F000000
3C000000
3C000000
3C000000
3C000000
3C000000
3C000000
3C000000
3C000000
3C800000
7F800000
3E000000
1C000000
00000000
00000000
00000000
00000000
00000000
00000000
ENDCHAR
STARTCHAR C006C
ENCODING -1 108
SWIDTH 314 0
DWIDTH 11 0
BBX 29 35 0 -5
BITMAP
00000000
00000000
00000000
00000000
00000000
00000000
01800000
07000000
CE000000
FE000000
7C000000
7C000000
3C000000
3C000000
3C000000
3C000000
3C000000
3C000000
3C000000
3C000000
3C000000
3C000000
3C000000
3C000000
3C000000
3C000000
7F800000
7F000000
1E000000
0C000000
00000000
00000000
00000000
00000000
00000000
ENDCHAR
STARTCHAR C006D
ENCODING -1 109
SWIDTH 714 0
DWIDTH 25 0
BBX 29 35 0 -5
BITMAP
00000000
00000000
00000000
00000000
00000000
00000000
00000000
00000000
00000000
00000000
00000000
00000000
1060E000
38F1E000
79F3F800
FFFFF800
FE7CF000
3C78F000
3C78F000
3C78F000
3C78F000
3C78F000
3C78F000
3C787000
3C787000
3C787C00
7EFC7800
3C387000
18102000
00000000
00000000
00000000
00000000
00000000
00000000
ENDCHAR
STARTCHAR C006E
ENCODING -1 110
SWIDTH 486 0
DWIDTH 17 0
BBX 29 35 0 -5
BITMAP
00000000
00000000
00000000
00000000
00000000
00000000
00000000
00000000
00000000
00000000
00000000
00000000
00000000
10600000
38F00000
7FF80000
FFF80000
FCF80000
3CF80000
3CF80000
3C780000
3C780000
3C780000
3C780000
3C780000
3C780000
3E7C0000
7E3C0000
1C380000
08000000
00000000
00000000
00000000
00000000
00000000
ENDCHAR
STARTCHAR C006F
ENCODING -1 111
SWIDTH 400 0
DWIDTH 14 0
BBX 29 35 0 -5
BITMAP
00000000
00000000
00000000
00000000
00000000
00000000
00000000
00000000
00000000
00000000
00000000
00000000
00000000
00E00000
03E00000
7FE00000
7DF00000
78F00000
78F80000
78F80000
78F80000
78780000
78780000
78780000
78700000
7C700000
7FE00000
FF800000
1F000000
02000000
00000000
00000000
00000000
00000000
00000000
ENDCHAR
STARTCHAR C0070
ENCODING -1 112
SWIDTH 400 0
DWIDTH 14 0
BBX 29 35 0 -5
BITMAP
00000000
00000000
00000000
00000000
00000000
00000000
00000000
00000000
00000000
00000000
40000000
60000000
E0000000
F0E00000
F9F00000
FFF00000
7CF00000
7CF80000
7CF80000
7CF80000
7CF80000
7CF80000
7CF80000
7CF00000
FCF00000
FFF00000
FFE00000
BF800000
3F800000
3C000000
18000000
18000000
18000000
18000000
00000000
ENDCHAR
STARTCHAR C0071
ENCODING -1 113
SWIDTH 371 0
DWIDTH 13 0
BBX 29 35 0 -5
BITMAP
00000000
00000000
00000000
00000000
00000000
00000000
00000000
00000000
00000000
00000000
00000000
00000000
06000000
0F800000
3FE00000
7FE00000
F7C00000
F3C00000
F3C00000
F3C00000
F3C00000
F3C00000
F3C00000
F3C00000
F3C00000
FFC00000
7FC00000
79C00000
31E00000
01C00000
01C00000
01C00000
00800000
00000000
00000000
ENDCHAR
STARTCHAR C0072
ENCODING -1 114
SWIDTH 343 0
DWIDTH 12 0
BBX 29 35 0 -5
BITMAP
00000000
00000000
00000000
00000000
00000000
00000000
00000000
00000000
00000000
00000000
00000000
00000000
00000000
39C00000
7BC00000
FFC00000
FFE00000
3FC00000
3C800000
3C000000
3C000000
3C000000
3C000000
3C000000
3C000000
3C800000
7F800000
3F000000
0C000000
00000000
00000000
00000000
00000000
00000000
00000000
ENDCHAR
STARTCHAR C0073
ENCODING -1 115
SWIDTH 286 0
DWIDTH 10 0
BBX 29 35 0 -5
BITMAP
00000000
00000000
00000000
00000000
00000000
00000000
1D000000
3F000000
3F000000
3F000000
3E000000
30000000
70000000
78000000
F8000000
F8000000
FC000000
7C000000
7C000000
7C000000
3C000000
38000000
38000000
38000000
38000000
38000000
38000000
38000000
38000000
38000000
38000000
18000000
10000000
00000000
00000000
ENDCHAR
STARTCHAR C0074
ENCODING -1 116
SWIDTH 314 0
DWIDTH 11 0
BBX 29 35 0 -5
BITMAP
00000000
00000000
00000000
00000000
00000000
00000000
00000000
04000000
0C000000
0C000000
0C000000
1C000000
1C000000
1C000000
3F000000
FF800000
FF000000
3E000000
3E000000
3C000000
3C000000
3C000000
3C000000
3C000000
3C000000
3C000000
7F000000
7E000000
1C000000
08000000
00000000
00000000
00000000
00000000
00000000
ENDCHAR
STARTCHAR C0075
ENCODING -1 117
SWIDTH 429 0
DWIDTH 15 0
BBX 29 35 0 -5
BITMAP
00000000
00000000
00000000
00000000
00000000
00000000
00000000
00000000
00000000
00000000
00000000
00000000
00000000
10200000
78700000
F8F80000
FDF80000
F8F80000
38F00000
38F00000
38F00000
38F00000
38F00000
38F00000
38F00000
38F00000
FFF80000
7E780000
38700000
10000000
00000000
00000000
00000000
00000000
00000000
ENDCHAR
STARTCHAR C0076
ENCODING -1 118
SWIDTH 400 0
DWIDTH 14 0
BBX 29 35 0 -5
BITMAP
00000000
00000000
00000000
00000000
00000000
00000000
00000000
00000000
00000000
00000000
40000000
C0000000
E0000000
E0E00000
F1F00000
FFF00000
7FF00000
7CF00000
78F00000
78F00000
78F00000
78F00000
78F00000
78F00000
78F00000
7CE00000
FFE00000
3F000000
0E000000
00000000
00000000
00000000
00000000
00000000
00000000
ENDCHAR
STARTCHAR C0077
ENCODING -1 119
SWIDTH 600 0
DWIDTH 21 0
BBX 29 35 0 -5
BITMAP
00000000
00000000
00000000
00000000
00000000
00000000
00000000
00000000
00000000
00000000
C0000000
E0000000
E0000000
F0E1C000
F1E3C000
FFFFC000
7FFFE000
78F1E000
78F1E000
78F1E000
78F1E000
78F1E000
78F1E000
78F3C000
78F3C000
78FBC000
F8FF8000
707E0000
201C0000
00000000
00000000
00000000
00000000
00000000
00000000
ENDCHAR
STARTCHAR C0078
ENCODING -1 120
SWIDTH 400 0
DWIDTH 14 0
BBX 29 35 0 -5
BITMAP
00000000
00000000
00000000
00000000
00000000
00000000
00000000
00000000
00000000
00000000
00000000
00000000
00000000
18600000
3CF00000
7FF00000
FFF80000
3E700000
3E600000
3E000000
3E000000
1E000000
1E000000
1E000000
1E000000
3E000000
7FE00000
FFC00000
E1800000
E0000000
E0700000
60F00000
30E00000
1FC00000
00000000
ENDCHAR
STARTCHAR C0079
ENCODING -1 121
SWIDTH 400 0
DWIDTH 14 0
BBX 29 35 0 -5
BITMAP
00000000
00000000
00000000
00000000
00000000
00000000
00000000
00000000
00000000
00000000
40000000
E0000000
E0000000
E0C00000
F1E00000
FBE00000
79E00000
79F00000
78F00000
78F00000
78F00000
78F00000
78F00000
78F00000
78F00000
78E00000
FCE00000
7CE00000
3CC00000
00C00000
00C00000
01800000
01800000
01000000
00000000
ENDCHAR
STARTCHAR C007A
ENCODING -1 122
SWIDTH 343 0
DWIDTH 12 0
BBX 29 35 0 -5
BITMAP
00000000
00000000
00000000
00000000
00000000
00000000
00000000
00000000
00000000
00000000
00000000
00000000
0C000000
1E000000
3F000000
7F000000
4F000000
0E000000
0E000000
1C000000
7CC00000
FF800000
4F800000
1F800000
33C00000
63C00000
63C00000
C1C00000
C1C00000
C1C00000
E3C00000
63800000
3F000000
0E000000
00000000
ENDCHAR
STARTCHAR C007B
ENCODING -1 123
SWIDTH 0 0
DWIDTH 0 0
BBX 29 35 0 -5
BITMAP
00000000
00000000
00000000
00000000
00000000
00000000
00000000
00000000
00000000
00000000
00000000
00000000
00000000
00000000
00000000
00000000
00000000
00000000
00000000
00000000
00000000
00000000
00000000
00000000
00000000
00000000
00000000
00000000
00000000
00000000
00000000
00000000
00000000
00000000
00000000
ENDCHAR
STARTCHAR C007C
ENCODING -1 124
SWIDTH 0 0
DWIDTH 0 0
BBX 29 35 0 -5
BITMAP
00000000
00000000
00000000
00000000
00000000
00000000
00000000
00000000
00000000
00000000
00000000
00000000
00000000
00000000
00000000
00000000
00000000
00000000
00000000
00000000
00000000
00000000
00000000
00000000
00000000
00000000
00000000
00000000
00000000
00000000
00000000
00000000
00000000
00000000
00000000
ENDCHAR
STARTCHAR C007D
ENCODING -1 125
SWIDTH 0 0
DWIDTH 0 0
BBX 29 35 0 -5
BITMAP
00000000
00000000
00000000
00000000
00000000
00000000
00000000
00000000
00000000
00000000
00000000
00000000
00000000
00000000
00000000
00000000
00000000
00000000
00000000
00000000
00000000
00000000
00000000
00000000
00000000
00000000
00000000
00000000
00000000
00000000
00000000
00000000
00000000
00000000
00000000
ENDCHAR
STARTCHAR C007E
ENCODING -1 126
SWIDTH 0 0
DWIDTH 0 0
BBX 29 35 0 -5
BITMAP
00000000
00000000
00000000
00000000
00000000
00000000
00000000
00000000
00000000
00000000
00000000
00000000
00000000
00000000
00000000
00000000
00000000
00000000
00000000
00000000
00000000
00000000
00000000
00000000
00000000
00000000
00000000
00000000
00000000
00000000
00000000
00000000
00000000
00000000
00000000
ENDCHAR
STARTCHAR C007F
ENCODING -1 127
SWIDTH 0 0
DWIDTH 0 0
BBX 29 35 0 -5
BITMAP
00000000
00000000
00000000
00000000
00000000
00000000
00000000
00000000
00000000
00000000
00000000
00000000
00000000
00000000
00000000
00000000
00000000
00000000
00000000
00000000
00000000
00000000
00000000
00000000
00000000
00000000
00000000
00000000
00000000
00000000
00000000
00000000
00000000
00000000
00000000
ENDCHAR
ENDFONT
